name Visual3d_SIMM_grf.mot
datacolumns 19
datarows 54
range 0.690000 1.220000
endheader
time	ground_force_vx	ground_force_vy	ground_force_vz	ground_force_px	ground_force_py	ground_force_pz	l_ground_force_vx	l_ground_force_vy	l_ground_force_vz	l_ground_force_px	l_ground_force_py	l_ground_force_pz	ground_torque_x	ground_torque_y	ground_torque_z	l_ground_torque_x	l_ground_torque_y	l_ground_torque_z
0.690000	-42.951092	190.153564	-0.407485	-0.328153	-0.003511	-0.206019	0.000000	0.000000	0.000000	0.000000	0.000000	0.000000	0.000734	-0.659146	0.001413	0.000000	0.000000	0.000000
0.700000	-48.625450	214.522659	-2.754704	-0.324674	-0.003751	-0.205013	0.000000	0.000000	0.000000	0.000000	0.000000	0.000000	0.000793	-0.712547	0.001528	0.000000	0.000000	0.000000
0.710000	-53.253529	237.975128	-5.261077	-0.321016	-0.003811	-0.204200	0.000000	0.000000	0.000000	0.000000	0.000000	0.000000	0.000842	-0.756260	0.001622	0.000000	0.000000	0.000000
0.720000	-56.531498	260.098114	-7.708516	-0.317452	-0.003732	-0.203510	0.000000	0.000000	0.000000	0.000000	0.000000	0.000000	0.000886	-0.795572	0.001706	0.000000	0.000000	0.000000
0.730000	-58.216343	279.876617	-9.903879	-0.314199	-0.003577	-0.202922	0.000000	0.000000	0.000000	0.000000	0.000000	0.000000	0.000929	-0.834306	0.001789	0.000000	0.000000	0.000000
0.740000	-58.213951	296.139069	-11.707199	-0.311381	-0.003404	-0.202444	0.000000	0.000000	0.000000	0.000000	0.000000	0.000000	0.000970	-0.871760	0.001869	0.000000	0.000000	0.000000
0.750000	-56.611542	308.040710	-13.019777	-0.309036	-0.003254	-0.202093	0.000000	0.000000	0.000000	0.000000	0.000000	0.000000	0.001006	-0.903733	0.001938	0.000000	0.000000	0.000000
0.760000	-53.703236	315.081482	-13.769248	-0.307114	-0.003145	-0.201884	0.000000	0.000000	0.000000	0.000000	0.000000	0.000000	0.001032	-0.927341	0.001988	0.000000	0.000000	0.000000
0.770000	-49.883736	317.160645	-13.947778	-0.305499	-0.003076	-0.201816	0.000000	0.000000	0.000000	0.000000	0.000000	0.000000	0.001048	-0.941483	0.002019	0.000000	0.000000	0.000000
0.780000	-45.539749	314.607056	-13.630751	-0.304040	-0.003033	-0.201859	0.000000	0.000000	0.000000	0.000000	0.000000	0.000000	0.001052	-0.944963	0.002026	0.000000	0.000000	0.000000
0.790000	-40.999008	308.071655	-12.949837	-0.302570	-0.002996	-0.201965	0.000000	0.000000	0.000000	0.000000	0.000000	0.000000	0.001044	-0.937438	0.002010	0.000000	0.000000	0.000000
0.800000	-36.525322	298.385681	-12.059353	-0.300924	-0.002949	-0.202086	0.000000	0.000000	0.000000	0.000000	0.000000	0.000000	0.001023	-0.919363	0.001971	0.000000	0.000000	0.000000
0.810000	-32.317360	286.455231	-11.107275	-0.298956	-0.002881	-0.202184	0.000000	0.000000	0.000000	0.000000	0.000000	0.000000	0.000991	-0.890616	0.001910	0.000000	0.000000	0.000000
0.820000	-28.495453	273.198975	-10.195338	-0.296554	-0.002787	-0.202237	0.000000	0.000000	0.000000	0.000000	0.000000	0.000000	0.000947	-0.850335	0.001823	0.000000	0.000000	0.000000
0.830000	-25.096109	259.496826	-9.362682	-0.293664	-0.002672	-0.202237	0.000000	0.000000	0.000000	0.000000	0.000000	0.000000	0.000887	-0.796950	0.001709	0.000000	0.000000	0.000000
0.840000	-22.085993	246.146332	-8.598589	-0.290303	-0.002544	-0.202184	0.000000	0.000000	0.000000	0.000000	0.000000	0.000000	0.000811	-0.728074	0.001561	0.000000	0.000000	0.000000
0.850000	-19.393015	233.783142	-7.871231	-0.286566	-0.002412	-0.202088	0.000000	0.000000	0.000000	0.000000	0.000000	0.000000	0.000715	-0.641968	0.001377	0.000000	0.000000	0.000000
0.860000	-16.941879	222.817383	-7.156035	-0.282598	-0.002285	-0.201954	0.000000	0.000000	0.000000	0.000000	0.000000	0.000000	0.000598	-0.537351	0.001152	0.000000	0.000000	0.000000
0.870000	-14.677693	213.427643	-6.453401	-0.278551	-0.002173	-0.201772	0.000000	0.000000	0.000000	0.000000	0.000000	0.000000	0.000461	-0.413817	0.000887	0.000000	0.000000	0.000000
0.880000	-12.576837	205.613892	-5.790549	-0.274550	-0.002086	-0.201529	0.000000	0.000000	0.000000	0.000000	0.000000	0.000000	0.000303	-0.272399	0.000584	0.000000	0.000000	0.000000
0.890000	-10.641776	199.282761	-5.217111	-0.270677	-0.002033	-0.201217	0.000000	0.000000	0.000000	0.000000	0.000000	0.000000	0.000130	-0.116361	0.000250	0.000000	0.000000	0.000000
0.900000	-8.878474	194.326080	-4.784224	-0.266971	-0.002015	-0.200838	0.000000	0.000000	0.000000	0.000000	0.000000	0.000000	-0.000055	0.049278	-0.000106	0.000000	0.000000	0.000000
0.910000	-7.280173	190.663910	-4.520650	-0.263434	-0.002024	-0.200408	0.000000	0.000000	0.000000	0.000000	0.000000	0.000000	-0.000243	0.218444	-0.000468	0.000000	0.000000	0.000000
0.920000	-5.819864	188.251144	-4.415290	-0.260048	-0.002050	-0.199945	0.000000	0.000000	0.000000	0.000000	0.000000	0.000000	-0.000430	0.385811	-0.000827	0.000000	0.000000	0.000000
0.930000	-4.455125	187.059418	-4.414869	-0.256785	-0.002083	-0.199475	0.000000	0.000000	0.000000	0.000000	0.000000	0.000000	-0.000610	0.548311	-0.001176	0.000000	0.000000	0.000000
0.940000	-3.138852	187.060104	-4.439479	-0.253623	-0.002119	-0.199041	0.000000	0.000000	0.000000	0.000000	0.000000	0.000000	-0.000786	0.705875	-0.001514	0.000000	0.000000	0.000000
0.950000	-1.826181	188.222015	-4.413564	-0.250549	-0.002148	-0.198684	0.000000	0.000000	0.000000	0.000000	0.000000	0.000000	-0.000958	0.860761	-0.001846	0.000000	0.000000	0.000000
0.960000	-0.479452	190.496140	-4.298298	-0.247533	-0.002162	-0.198414	0.000000	0.000000	0.000000	0.000000	0.000000	0.000000	-0.001131	1.015999	-0.002179	0.000000	0.000000	0.000000
0.970000	0.928610	193.810501	-4.110448	-0.244534	-0.002153	-0.198213	0.000000	0.000000	0.000000	0.000000	0.000000	0.000000	-0.001307	1.173669	-0.002517	0.000000	0.000000	0.000000
0.980000	2.418801	198.069595	-3.922662	-0.241521	-0.002118	-0.198056	0.000000	0.000000	0.000000	0.000000	0.000000	0.000000	-0.001485	1.333642	-0.002860	0.000000	0.000000	0.000000
0.990000	4.017266	203.163574	-3.839349	-0.238482	-0.002061	-0.197915	0.000000	0.000000	0.000000	0.000000	0.000000	0.000000	-0.001662	1.492776	-0.003201	0.000000	0.000000	0.000000
1.000000	5.760479	208.972290	-3.957078	-0.235435	-0.001988	-0.197770	0.000000	0.000000	0.000000	0.000000	0.000000	0.000000	-0.001833	1.646290	-0.003530	0.000000	0.000000	0.000000
1.010000	7.689945	215.372650	-4.326700	-0.232430	-0.001909	-0.197621	0.000000	0.000000	0.000000	0.000000	0.000000	0.000000	-0.001993	1.790481	-0.003839	0.000000	0.000000	0.000000
1.020000	9.846518	222.247849	-4.936338	-0.229532	-0.001831	-0.197479	0.000000	0.000000	0.000000	0.000000	0.000000	0.000000	-0.002142	1.924291	-0.004126	0.000000	0.000000	0.000000
1.030000	12.261361	229.479462	-5.715896	-0.226806	-0.001757	-0.197373	0.000000	0.000000	0.000000	0.000000	0.000000	0.000000	-0.002282	2.049692	-0.004395	0.000000	0.000000	0.000000
1.040000	14.946609	236.922134	-6.558609	-0.224292	-0.001686	-0.197341	0.000000	0.000000	0.000000	0.000000	0.000000	0.000000	-0.002417	2.171173	-0.004656	0.000000	0.000000	0.000000
1.050000	17.894999	244.388824	-7.347064	-0.222003	-0.001619	-0.197412	0.000000	0.000000	0.000000	0.000000	0.000000	0.000000	-0.002555	2.294932	-0.004921	0.000000	0.000000	0.000000
1.060000	21.082296	251.654099	-7.978138	-0.219924	-0.001558	-0.197590	0.000000	0.000000	0.000000	0.000000	0.000000	0.000000	-0.002702	2.426698	-0.005204	0.000000	0.000000	0.000000
1.070000	24.477207	258.476929	-8.401189	-0.218030	-0.001508	-0.197864	0.000000	0.000000	0.000000	0.000000	0.000000	0.000000	-0.002860	2.569107	-0.005509	0.000000	0.000000	0.000000
1.080000	28.055456	264.637939	-8.651113	-0.216295	-0.001470	-0.198208	0.000000	0.000000	0.000000	0.000000	0.000000	0.000000	-0.003024	2.716243	-0.005824	0.000000	0.000000	0.000000
1.090000	31.775570	269.941986	-8.809340	-0.214694	-0.001448	-0.198595	0.000000	0.000000	0.000000	0.000000	0.000000	0.000000	-0.003179	2.855290	-0.006123	0.000000	0.000000	0.000000
1.100000	35.576576	274.187073	-8.970119	-0.213199	-0.001447	-0.199003	0.000000	0.000000	0.000000	0.000000	0.000000	0.000000	-0.003307	2.970267	-0.006369	0.000000	0.000000	0.000000
1.110000	39.384758	277.137451	-9.207285	-0.211782	-0.001472	-0.199416	0.000000	0.000000	0.000000	0.000000	0.000000	0.000000	-0.003390	3.045084	-0.006530	0.000000	0.000000	0.000000
1.120000	43.119820	278.509613	-9.545506	-0.210415	-0.001526	-0.199828	0.000000	0.000000	0.000000	0.000000	0.000000	0.000000	-0.003416	3.068088	-0.006579	0.000000	0.000000	0.000000
1.130000	46.700512	277.965912	-9.943358	-0.209066	-0.001604	-0.200241	0.000000	0.000000	0.000000	0.000000	0.000000	0.000000	-0.003379	3.035249	-0.006508	0.000000	0.000000	0.000000
1.140000	50.036957	275.122650	-10.299778	-0.207710	-0.001694	-0.200667	0.000000	0.000000	0.000000	0.000000	0.000000	0.000000	-0.003286	2.951992	-0.006330	0.000000	0.000000	0.000000
1.150000	53.021858	269.596893	-10.490066	-0.206329	-0.001781	-0.201122	0.000000	0.000000	0.000000	0.000000	0.000000	0.000000	-0.003152	2.831183	-0.006071	0.000000	0.000000	0.000000
1.160000	55.520023	261.050446	-10.408120	-0.204930	-0.001851	-0.201619	0.000000	0.000000	0.000000	0.000000	0.000000	0.000000	-0.002992	2.687792	-0.005763	0.000000	0.000000	0.000000
1.170000	57.353310	249.224808	-9.989521	-0.203554	-0.001891	-0.202173	0.000000	0.000000	0.000000	0.000000	0.000000	0.000000	-0.002817	2.530376	-0.005426	0.000000	0.000000	0.000000
1.180000	58.292076	233.978348	-9.219552	-0.202289	-0.001889	-0.202803	-3.959005	36.651722	-0.349437	0.239973	-0.007210	-0.269010	-0.002626	2.359196	-0.005059	0.001058	-0.093031	-0.001891
1.190000	58.065842	215.316528	-8.127149	-0.201286	-0.001838	-0.203546	-8.833797	62.510395	0.238160	0.245291	-0.006995	-0.270850	-0.002414	2.168303	-0.004649	0.001112	-0.097811	-0.001988
1.200000	56.402447	193.431519	-6.776593	-0.200783	-0.001729	-0.204458	-15.575257	93.587738	1.427187	0.250002	-0.006725	-0.271916	-0.002169	1.948234	-0.004178	0.001173	-0.103144	-0.002097
1.210000	53.090305	168.766632	-5.259568	-0.201100	-0.001545	-0.205612	-23.898123	126.370827	3.379646	0.255657	-0.006326	-0.272583	-0.001881	1.689573	-0.003623	0.001229	-0.108096	-0.002197
1.220000	48.055550	142.112091	-3.688122	-0.202618	-0.001256	-0.207075	-32.919346	158.231827	6.163102	0.263224	-0.005680	-0.273011	-0.001548	1.390505	-0.002982	0.001208	-0.106264	-0.002160
